HIERARCHY
ROOT hip
{
	OFFSET 0.000000 0.000000 0.000000 
	CHANNELS 6 Xposition Yposition Zposition Xrotation Zrotation Yrotation
	JOINT abdomen
	{
		OFFSET 0.000000 3.402643 0.000000 
		CHANNELS 3 Xrotation Zrotation Yrotation
		JOINT chest
		{
			OFFSET 0.000000 8.438565 -0.680529 
			CHANNELS 3 Xrotation Zrotation Yrotation
			JOINT neck
			{
				OFFSET 0.000000 10.207942 -0.272212 
				CHANNELS 3 Xrotation Zrotation Yrotation
				JOINT head
				{
					OFFSET 0.000000 3.130431 0.000000 
					CHANNELS 3 Xrotation Zrotation Yrotation
					End Site
					{
						OFFSET 0.000000 3.130435 0.000000 
					}
				}
			}
			JOINT lCollar
			{
				OFFSET 3.470700 6.669187 -0.816635 
				CHANNELS 3 Yrotation Zrotation Xrotation
				JOINT lShldr
				{
					OFFSET 3.198488 0.000000 0.000000 
					CHANNELS 3 Zrotation Yrotation Xrotation
					JOINT lForeArm
					{
						OFFSET 10.139888 0.000000 0.000000 
						CHANNELS 3 Yrotation Zrotation Xrotation
						JOINT lHand
						{
							OFFSET 8.370511 0.000000 0.000000 
							CHANNELS 3 Zrotation Yrotation Xrotation
							End Site
							{
								OFFSET 4.083176 0.000000 0.000000 
							}
						}
					}
				}
			}
			JOINT rCollar
			{
				OFFSET -3.470700 6.669187 -0.816635 
				CHANNELS 3 Yrotation Zrotation Xrotation
				JOINT rShldr
				{
					OFFSET -3.198488 0.000000 0.000000 
					CHANNELS 3 Zrotation Yrotation Xrotation
					JOINT rForeArm
					{
						OFFSET -10.139888 0.000000 0.000000 
						CHANNELS 3 Yrotation Zrotation Xrotation
						JOINT rHand
						{
							OFFSET -8.370511 0.000000 0.000000 
							CHANNELS 3 Zrotation Yrotation Xrotation
							End Site
							{
								OFFSET -4.083176 0.000000 0.000000 
							}
						}
					}
				}
			}
		}
	}
	JOINT lThigh
	{
		OFFSET 5.308129 -1.633274 1.361059 
		CHANNELS 3 Xrotation Zrotation Yrotation
		JOINT lShin
		{
			OFFSET -2.041588 -20.007561 0.000000 
			CHANNELS 3 Xrotation Zrotation Yrotation
			JOINT lFoot
			{
				OFFSET 0.000000 -19.190928 -1.224953 
				CHANNELS 3 Xrotation Yrotation Zrotation
				End Site
				{
					OFFSET 0.000000 -2.449906 4.627600 
				}
			}
		}
	}
	JOINT rThigh
	{
		OFFSET -5.308129 -1.633274 1.361059 
		CHANNELS 3 Xrotation Zrotation Yrotation
		JOINT rShin
		{
			OFFSET 2.041588 -20.007561 0.000000 
			CHANNELS 3 Xrotation Zrotation Yrotation
			JOINT rFoot
			{
				OFFSET 0.000000 -19.190928 -1.224953 
				CHANNELS 3 Xrotation Yrotation Zrotation
				End Site
				{
					OFFSET 0.000000 -2.449906 4.627600 
				}
			}
		}
	}
}
MOTION
Frames: 15
Frame Time: 0.016667
0.492037 49.541000 3.103961 0.843617 -0.439412 0.781227 0.000000 0.000000 0.000000 -5.224415 0.205187 0.510332 5.303174 0.039060 0.644538 6.178494 -0.683587 0.263653 1.299367 9.236614 -4.245824 -6.286944 -3.457725 -17.282103 0.492423 -2.845782 16.035967 -0.892089 -9.089652 -3.216324 -0.202080 -8.837165 -4.238705 -1.036205 -6.356935 -14.136182 -0.080879 4.673592 21.305374 -0.065549 4.564676 -3.392330 7.136875 8.416955 8.265598 -1.639510 -2.612439 9.220706 -4.106817 0.237671 -7.204953 5.771308 -7.714748 -7.411337 -0.400097 3.904050 -12.876539 -3.935717 -0.241514 5.930172 
0.495416 49.541000 3.117878 0.853589 -0.429649 0.771463 0.000000 0.000000 0.000000 -5.224369 0.200060 0.559862 5.273438 0.000000 0.703136 6.120126 -0.634759 0.263656 1.290484 9.227368 -4.255470 -6.397732 -3.487091 -17.393677 0.492610 -2.746098 16.406115 -0.932693 -9.072347 -3.210648 -0.324970 -8.847917 -4.269164 -0.981909 -6.314911 -14.182761 -0.078382 4.691958 21.188580 -0.130521 4.502136 -3.397913 7.164372 8.395898 8.292936 -1.681076 -2.605219 9.242955 -4.075587 0.251376 -7.177331 5.778306 -7.721046 -7.442071 -0.396025 3.926232 -12.818264 -3.974693 -0.233755 5.934132 
0.496275 49.538734 3.125989 0.921762 -0.449179 0.761695 0.000000 0.000000 0.000000 -5.302502 0.169055 0.543169 5.264158 0.039059 0.712897 6.041241 -0.654287 0.322245 1.219879 9.202629 -4.313382 -6.390502 -3.349021 -17.380932 0.477396 -2.679792 16.492975 -1.034225 -9.175991 -3.202242 -0.289918 -8.782329 -4.327068 -0.983372 -6.336725 -14.211022 -0.083249 4.631206 21.666256 -0.226561 4.467096 -3.405596 7.097332 8.445223 8.298797 -1.632332 -2.654062 9.212053 -4.141553 0.250904 -7.178995 5.727058 -7.708623 -7.401343 -0.449227 3.923791 -12.832344 -3.917754 -0.227275 5.935822 
0.494967 49.542908 3.133449 0.960851 -0.458946 0.742164 0.000000 0.000000 0.000000 -5.331818 0.137131 0.516755 5.224994 0.029294 0.751958 6.041506 -0.527333 0.371078 1.374402 9.112427 -4.342105 -6.352338 -3.478030 -17.277971 0.464229 -2.665891 16.932859 -0.717521 -9.197274 -3.241539 -0.265973 -8.705838 -4.336724 -0.873466 -6.301932 -14.291197 -0.086451 4.578578 21.703732 -0.370459 4.575941 -3.416424 7.079744 8.456717 8.349425 -1.640519 -2.662234 9.163576 -4.159122 0.253844 -7.157008 5.687203 -7.688503 -7.369415 -0.439698 3.904664 -12.899620 -3.924344 -0.256932 5.965899 
0.494336 49.548435 3.136324 1.000586 -0.429655 0.703105 0.000000 0.000000 0.000000 -5.341556 0.080635 0.541704 5.205591 0.039059 0.751960 6.090424 -0.527333 0.361313 1.471928 9.045951 -4.370887 -6.388264 -3.617075 -16.994616 0.427865 -2.720433 17.304924 -0.599562 -9.180881 -3.260455 -0.268964 -8.705748 -4.356031 -0.540225 -6.220710 -14.414766 -0.075639 4.442781 21.582560 -0.374982 4.487625 -3.417048 7.074398 8.412968 8.314650 -1.687835 -2.670662 9.303578 -4.121786 0.250673 -7.168072 5.639090 -7.718021 -7.402472 -0.408795 3.893558 -12.798979 -3.975468 -0.239490 5.942336 
0.490115 49.554096 3.126560 0.952379 -0.419896 0.634749 0.000000 0.000000 0.000000 -5.292676 0.017175 0.596738 5.362234 0.078120 0.664075 5.934054 -0.673819 0.292949 1.491142 8.908219 -4.309918 -6.513480 -3.742707 -16.641853 0.371277 -2.694495 18.194414 -0.401243 -9.237823 -3.271202 -0.274107 -8.871519 -4.309260 0.363999 -5.985056 -14.812604 -0.057546 3.985228 22.255568 -0.663033 4.382372 -3.438570 7.142822 8.422548 8.355952 -1.779144 -2.683680 9.407674 -4.025260 0.241336 -7.180427 5.640308 -7.729097 -7.393742 -0.339118 3.890145 -12.715775 -4.006771 -0.220536 5.961422 
0.473777 49.560783 3.104964 0.883762 -0.488257 0.576151 0.000000 0.000000 0.000000 -5.175429 -0.035645 0.660577 5.577086 0.087886 0.595717 5.555685 -0.400389 0.136715 1.582524 8.765901 -4.210261 -6.992909 -4.119024 -16.302671 0.297386 -2.532147 19.090961 0.373104 -9.007354 -3.367896 -0.320278 -8.887148 -4.219410 1.951212 -5.464007 -14.970979 -0.013611 3.505081 22.156471 -2.788951 4.027584 -3.579236 7.194060 8.493316 8.404938 -1.749029 -2.673058 9.327363 -4.050344 0.246263 -7.178973 5.672553 -7.675143 -7.347501 -0.340205 3.930125 -12.696927 -3.971942 -0.219935 5.918724 
0.436611 49.580791 3.068024 1.049374 -0.546849 0.556615 0.000000 0.000000 0.000000 -5.292707 -0.120776 0.590137 5.683512 -0.009765 0.478516 5.449219 0.000000 -0.009766 1.727188 8.625861 -4.325809 -8.576067 -4.749240 -16.917309 0.203031 -1.666962 20.741135 1.489181 -8.785267 -3.481053 -0.615839 -8.415180 -4.333769 4.147592 -4.223520 -15.615035 -0.009754 3.061894 20.534229 -6.970813 4.121448 -3.856895 7.094033 8.589405 8.446825 -1.982177 -2.690973 9.273758 -3.889094 0.241800 -7.187867 5.423167 -7.512432 -7.191068 -0.321241 3.872620 -12.782407 -3.967261 -0.232752 5.860372 
0.375544 49.600540 3.002733 1.371277 -0.605442 0.537079 0.000000 0.000000 0.000000 -5.527054 -0.165711 0.633614 5.623469 -0.195307 0.449216 6.044667 0.087890 -0.166015 1.769315 7.883848 -4.535339 -10.795749 -5.773225 -18.225309 0.298433 -0.479922 21.924641 3.567060 -8.522463 -3.702430 -0.585715 -7.536004 -4.530156 6.909277 -3.313000 -16.216949 0.020072 2.798540 16.639313 -11.824363 5.231943 -4.277683 6.829687 8.724257 8.511599 -2.289423 -2.775597 9.247369 -3.609334 0.229525 -7.144551 4.974288 -7.356057 -6.917633 -0.252256 3.744478 -12.921782 -3.941402 -0.232894 5.828136 
0.315751 49.609486 2.918326 1.704883 -0.546860 0.429668 0.000000 0.000000 0.000000 -5.751633 -0.200924 0.676174 5.416759 -0.371080 0.488271 6.866067 -0.244139 -0.195352 1.426742 6.644313 -4.700068 -13.940114 -5.690319 -18.347305 -1.251510 0.010262 20.083508 7.369596 -8.263135 -4.072572 0.256265 -5.507689 -4.668982 9.606039 -5.378688 -16.393682 4.894011 2.322417 14.129021 -14.131158 6.229583 -4.551497 6.472762 8.739204 8.400635 -2.368386 -2.786148 9.448060 -3.456852 0.224162 -7.185671 4.451092 -7.302111 -6.755260 -0.183976 3.676512 -12.993917 -3.879195 -0.229432 5.754416 
0.232027 49.629482 2.828223 1.811417 -0.791000 0.361294 0.000000 0.000000 0.000000 -5.585606 0.030573 0.634710 4.712677 -0.439434 0.537094 8.038908 -0.458981 -0.224680 1.425780 5.402856 -4.521400 -19.228373 -3.003802 -18.351978 -10.074564 0.426708 17.224409 9.585535 -7.106374 -4.219676 0.912498 -2.990230 -4.467812 14.280965 -11.879071 -16.855938 21.234959 1.580149 13.690506 -13.917163 3.631593 -4.258665 6.316486 9.070633 8.638302 -2.421737 -2.818743 9.403598 -3.310781 0.211270 -7.219399 4.255661 -6.969362 -6.543525 -0.290171 3.704770 -13.050849 -3.736118 -0.207958 5.560050 
0.122103 49.636642 2.700477 1.963590 -1.025391 -0.039231 0.000000 0.000000 0.000000 -5.429295 0.324467 0.734497 3.969423 -0.371058 0.800765 8.947173 -0.839842 -0.127083 1.305444 3.642039 -4.354015 -24.775146 0.549291 -17.635815 -20.137419 0.521424 13.429548 9.062236 -6.237761 -4.124863 2.095057 -0.139585 -4.342782 17.948002 -15.196686 -16.206423 29.014996 1.260447 14.502605 -13.221527 2.562431 -4.106087 6.072858 9.481018 8.962516 -2.305079 -2.916727 9.566057 -3.241089 0.189577 -7.290116 3.826356 -6.697412 -6.361294 -0.302949 3.894969 -12.850351 -3.551627 -0.239256 5.248137 
0.005467 49.635872 2.595926 1.872905 -0.937469 -0.468847 0.000000 0.000000 0.000000 -5.096879 0.359920 1.005807 3.471343 -0.312456 0.957017 9.251528 -1.201167 -0.166184 0.958389 1.655589 -4.024930 -29.804302 2.827397 -16.085878 -26.306929 0.331298 11.963470 5.231454 -5.832545 -3.789802 3.382294 2.803034 -4.090724 21.246870 -17.859634 -14.121673 34.282612 1.173132 16.608591 -11.140182 1.413553 -3.908566 6.295035 9.469330 8.974988 -2.619041 -2.859309 9.935776 -2.967004 0.192794 -7.398568 3.610900 -6.617567 -6.276631 0.021217 3.850945 -12.630145 -3.650324 -0.187602 5.123137 
-0.163165 49.618755 2.468781 1.850306 -1.015523 -0.810766 0.000000 0.000000 0.000000 -4.745093 0.401952 1.139169 2.872162 0.058584 1.044931 9.435307 -1.435546 -0.068583 0.160326 -0.548570 -3.691499 -33.752396 5.264770 -12.975738 -31.211967 -0.158274 12.928092 -0.482958 -5.252235 -3.340669 4.424967 5.829758 -3.859020 24.467665 -19.546013 -11.131824 37.965771 1.346581 18.643108 -6.711428 0.444394 -3.670436 6.235344 9.711747 9.103263 -2.540473 -2.800430 10.182513 -2.837997 0.174531 -7.634833 3.386030 -6.383076 -6.068925 0.061023 3.857988 -12.451666 -3.531774 -0.167794 4.854806 
-0.369210 49.603550 2.352650 1.835951 -1.005669 -1.113624 0.000000 0.000000 0.000000 -4.383628 0.428748 1.215113 2.154136 0.312448 1.044960 9.902344 -1.660156 0.000000 -0.865416 -3.030089 -3.412418 -36.903625 7.564124 -8.802735 -34.894253 -0.931709 14.830572 -5.257556 -5.488579 -2.963136 5.568159 9.232385 -3.717320 26.852919 -20.927467 -7.374560 40.638599 1.817669 20.542439 -1.719238 0.755876 -3.510188 6.150344 9.919616 9.235827 -2.491674 -2.771060 10.354134 -2.676412 0.181068 -7.849475 3.202244 -6.180827 -5.913826 0.068956 3.902414 -12.129491 -3.497757 -0.164329 4.559904 
